# xmcd
#
# Track frame offsets:
#	150
#	14504
#	32004
#	46692
#	68587
#	83179
#
# Disc length: 1375 seconds
#
# Revision: 1
# Processed by: cddbd v1.5PL3 Copyright (c) Steve Scherf et al.
# Submitted via: CDex 1.50Beta5
#
DISCID=3e055d06
DTITLE=Lisa Loeb and Nine Stories - WAITING FOR WEDNESDAY
DYEAR=1900
DGENRE=Rock
TTITLE0=WAITING FOR WEDNESDAY
TTITLE1=STAY ( LIVE )
TTITLE2=ALONE ( LIVE )
TTITLE3=HURRICANE ( LIVE )
TTITLE4=GARDEN OF DELIGHTS ( LIVE )
TTITLE5=TAFFY ( LIVE )
EXTD=
EXTT0=
EXTT1=
EXTT2=
EXTT3=
EXTT4=
EXTT5=
PLAYORDER=
